<?xml version="1.0" encoding="UTF-8"?>
<svg xmlns="http://www.w3.org/2000/svg" version="1.1" xmlns:xlink="http://www.w3.org/1999/xlink" viewBox="0 0 583.4 333.6">
  <!-- Generator: Adobe Illustrator 29.8.2, SVG Export Plug-In . SVG Version: 2.1.1 Build 3)  -->
  <defs>
    <style>
      .st0 {
        opacity: .3;
      }

      .st0, .st1 {
        mix-blend-mode: screen;
      }

      .st0, .st1, .st2 {
        isolation: isolate;
      }

      .st3 {
        mask: url(#mask-1);
      }

      .st4 {
        mask: url(#mask);
      }

      .st1 {
        opacity: .5;
      }

      .st5 {
        filter: url(#luminosity-noclip-2);
      }

      .st6 {
        fill: none;
      }

      .st7 {
        mask: url(#mask-2);
      }

      .st8 {
        filter: url(#luminosity-noclip-3);
      }

      .st9 {
        fill: #fffac6;
      }

      .st10 {
        fill: #4a1d00;
      }

      .st11 {
        fill: #fffef6;
      }

      .st12 {
        fill: #783228;
      }

      .st13 {
        filter: url(#luminosity-noclip-4);
      }

      .st14 {
        opacity: .5;
      }

      .st15 {
        mask: url(#mask-3);
      }

      .st16 {
        filter: url(#luminosity-noclip);
      }
    </style>
    <filter id="luminosity-noclip" x="102.84" y="115.08" width="382.56" height="20.64">
      <feFlood flood-color="#fff" result="bg"/>
      <feBlend in="SourceGraphic" in2="bg"/>
    </filter>
    <mask id="mask" x="199.1" y="175.1" width="814.6" height="45" maskUnits="userSpaceOnUse">
      <g id="mask1" data-name="mask">
        <g class="st16">
          <image class="st2" width="1591" height="85" transform="translate(199.1 175.1) scale(.1 .4)" xlink:href="favicon-2.png"/>
        </g>
      </g>
    </mask>
    <filter id="luminosity-noclip-2" x="147.72" y="82.92" width="272.4" height="13.68">
      <feFlood flood-color="#fff" result="bg"/>
      <feBlend in="SourceGraphic" in2="bg"/>
    </filter>
    <mask id="mask-1" x="245.8" y="123.3" width="394.7" height="21.3" maskUnits="userSpaceOnUse">
      <g id="mask-11" data-name="mask-1">
        <g class="st5">
          <image class="st2" width="1135" height="55" transform="translate(245.8 123.3) scale(0 .4)" xlink:href="favicon-4.png"/>
        </g>
      </g>
    </mask>
    <filter id="luminosity-noclip-3" x="79.08" y="111.24" width="425.52" height="53.28">
      <feFlood flood-color="#fff" result="bg"/>
      <feBlend in="SourceGraphic" in2="bg"/>
    </filter>
    <mask id="mask-2" x="188.7" y="151" width="895.3" height="76.9" maskUnits="userSpaceOnUse">
      <g id="mask-21" data-name="mask-2">
        <g class="st8">
          <image class="st2" width="1771" height="221" transform="translate(188.7 151) scale(.1 .2)" xlink:href="favicon-6.png"/>
        </g>
      </g>
    </mask>
    <filter id="luminosity-noclip-4" x="102.84" y="79.08" width="348.72" height="32.64">
      <feFlood flood-color="#fff" result="bg"/>
      <feBlend in="SourceGraphic" in2="bg"/>
    </filter>
    <mask id="mask-3" x="199.4" y="154.4" width="686.3" height="37.2" maskUnits="userSpaceOnUse">
      <g id="mask-31" data-name="mask-3">
        <g class="st13">
          <image class="st2" width="1450" height="135" transform="translate(199.4 154.4) scale(.1 .2)" xlink:href="favicon-8.png"/>
        </g>
      </g>
    </mask>
  </defs>
  <g class="st2">
    <g id="Layer_1">
      <g id="Layer_2">
        <rect class="st6" x="149.4" y="43" width="256" height="256"/>
      </g>
      <g>
        <g>
          <image class="st1" width="1804" height="294" transform="translate(188.1 134.6) scale(.1 .4)" xlink:href="favicon-1.png"/>
          <g class="st4">
            <rect class="st11" x="200.1" y="178.3" width="165.9" height="26.5" rx="5.3" ry="5.3"/>
          </g>
        </g>
        <path class="st10" d="M192.1,235.1c-4.7-3-6.6-7.3-7.2-8.8-6.2-15.5-12.3-31.1-18.5-46.6-1.6-1.9-1.9-4.7-.7-6.9,1.2-2.2,3.6-3.5,6.1-3.3,69,0,137.9,0,206.9,0,.7,0,3.4.4,5.4,2.6,1.9,2.2,1.8,4.8,1.8,6.3,0,3.7-2,6.3-2.9,7.5-1.1,1.4-2.5,3.3-5,4.1-1.4.4-2.2.1-5.4,0-2.5-.1-4.5,0-5.7,0h-11.5c-44.8-.4-89.6-.7-134.5-1.1-.5,0-6.8,0-10.5,5.5-3.7,5.5-1.3,11.4-1.1,11.8l12.2,32h-19.3c-1.1,0-2.5-.1-4.1-.5-2.6-.6-4.6-1.7-5.9-2.5Z"/>
        <g>
          <image class="st1" width="1344" height="264" transform="translate(237.2 82.9) scale(0 .4)" xlink:href="favicon-3.png"/>
          <g class="st3">
            <rect class="st11" x="246.5" y="126.3" width="92.4" height="15.4" rx="3.1" ry="3.1"/>
          </g>
        </g>
        <g class="st14">
          <image class="st0" width="2429" height="880" transform="translate(155.8 81.4) scale(.1 .2)" xlink:href="favicon-5.png"/>
          <g class="st7">
            <rect class="st9" x="189.6" y="152.7" width="175.6" height="43.2"/>
          </g>
        </g>
        <g class="st14">
          <image class="st0" width="2113" height="794" transform="translate(165 73.8) scale(.1 .2)" xlink:href="favicon-7.png"/>
          <g class="st15">
            <rect class="st9" x="200.4" y="156.4" width="150.1" height="29.1"/>
          </g>
        </g>
        <path class="st12" d="M222.2,157.8c-3.3-1.9-4.6-4.7-5.1-5.7-4.3-10-8.7-20-13-30-1.1-1.2-1.3-3-.5-4.4,0,0,1-1.7,4.3-2.1,5.1-.7,133.8,0,143.1,0,.9.2,3.2.8,4.7,2.8,1,1.4,1.2,2.9,1.4,4.3.3,1.9,0,3.3,0,3.9-.2,1.3-.5,3.2-1.8,4.9-1.9,2.4-4.6,2.9-5.6,3.1h-109.2c-.8.3-2.6,1.1-3.8,2.9-1.6,2.5-1.5,5.9.3,8.8,1.9,4.5,3.7,8.9,5.6,13.4h-13.5c-.8,0-1.8,0-2.8-.3-1.8-.4-3.2-1.1-4.1-1.6Z"/>
      </g>
    </g>
  </g>
</svg>